<?xml version="1.0" standalone="yes"?>
<!-- SVG graphic -->
<svg xmlns='http://www.w3.org/2000/svg' xmlns:xlink='http://www.w3.org/1999/xlink'
 version="1.1">
<rect x="0" y="0" width="6" height="200" stroke="black" stroke-width="1" fill="blue" tooltip="enable"><title>(0,747)</title></rect><rect x="6" y="22.7577" width="6" height="177.242" stroke="black" stroke-width="1" fill="blue" tooltip="enable"><title>(0.0379361,662)</title></rect><rect x="12" y="20.0803" width="6" height="179.92" stroke="black" stroke-width="1" fill="blue" tooltip="enable"><title>(0.0758722,672)</title></rect><rect x="18" y="40.4284" width="6" height="159.572" stroke="black" stroke-width="1" fill="blue" tooltip="enable"><title>(0.113808,596)</title></rect><rect x="24" y="38.2865" width="6" height="161.714" stroke="black" stroke-width="1" fill="blue" tooltip="enable"><title>(0.151744,604)</title></rect><rect x="30" y="50.0669" width="6" height="149.933" stroke="black" stroke-width="1" fill="blue" tooltip="enable"><title>(0.189681,560)</title></rect><rect x="36" y="59.4377" width="6" height="140.562" stroke="black" stroke-width="1" fill="blue" tooltip="enable"><title>(0.227617,525)</title></rect><rect x="42" y="69.0763" width="6" height="130.924" stroke="black" stroke-width="1" fill="blue" tooltip="enable"><title>(0.265553,489)</title></rect><rect x="48" y="86.2115" width="6" height="113.788" stroke="black" stroke-width="1" fill="blue" tooltip="enable"><title>(0.303489,425)</title></rect><rect x="54" y="93.1727" width="6" height="106.827" stroke="black" stroke-width="1" fill="blue" tooltip="enable"><title>(0.341425,399)</title></rect><rect x="60" y="95.5823" width="6" height="104.418" stroke="black" stroke-width="1" fill="blue" tooltip="enable"><title>(0.379361,390)</title></rect><rect x="66" y="111.111" width="6" height="88.8889" stroke="black" stroke-width="1" fill="blue" tooltip="enable"><title>(0.417297,332)</title></rect><rect x="72" y="117.805" width="6" height="82.1954" stroke="black" stroke-width="1" fill="blue" tooltip="enable"><title>(0.455233,307)</title></rect><rect x="78" y="124.23" width="6" height="75.7697" stroke="black" stroke-width="1" fill="blue" tooltip="enable"><title>(0.49317,283)</title></rect><rect x="84" y="126.908" width="6" height="73.0924" stroke="black" stroke-width="1" fill="blue" tooltip="enable"><title>(0.531106,273)</title></rect><rect x="90" y="131.727" width="6" height="68.2731" stroke="black" stroke-width="1" fill="blue" tooltip="enable"><title>(0.569042,255)</title></rect><rect x="96" y="138.42" width="6" height="61.5797" stroke="black" stroke-width="1" fill="blue" tooltip="enable"><title>(0.606978,230)</title></rect><rect x="102" y="142.436" width="6" height="57.5636" stroke="black" stroke-width="1" fill="blue" tooltip="enable"><title>(0.644914,215)</title></rect><rect x="108" y="146.988" width="6" height="53.0121" stroke="black" stroke-width="1" fill="blue" tooltip="enable"><title>(0.68285,198)</title></rect><rect x="114" y="149.665" width="6" height="50.3347" stroke="black" stroke-width="1" fill="blue" tooltip="enable"><title>(0.720786,188)</title></rect><rect x="120" y="157.697" width="6" height="42.3025" stroke="black" stroke-width="1" fill="blue" tooltip="enable"><title>(0.758722,158)</title></rect><rect x="126" y="155.556" width="6" height="44.4444" stroke="black" stroke-width="1" fill="blue" tooltip="enable"><title>(0.796658,166)</title></rect><rect x="132" y="161.178" width="6" height="38.822" stroke="black" stroke-width="1" fill="blue" tooltip="enable"><title>(0.834595,145)</title></rect><rect x="138" y="168.942" width="6" height="31.0576" stroke="black" stroke-width="1" fill="blue" tooltip="enable"><title>(0.872531,116)</title></rect><rect x="144" y="162.784" width="6" height="37.2155" stroke="black" stroke-width="1" fill="blue" tooltip="enable"><title>(0.910467,139)</title></rect><rect x="150" y="174.029" width="6" height="25.9706" stroke="black" stroke-width="1" fill="blue" tooltip="enable"><title>(0.948403,97)</title></rect><rect x="156" y="175.368" width="6" height="24.6319" stroke="black" stroke-width="1" fill="blue" tooltip="enable"><title>(0.986339,92)</title></rect><rect x="162" y="172.423" width="6" height="27.577" stroke="black" stroke-width="1" fill="blue" tooltip="enable"><title>(1.02428,103)</title></rect><rect x="168" y="175.368" width="6" height="24.6319" stroke="black" stroke-width="1" fill="blue" tooltip="enable"><title>(1.06221,92)</title></rect><rect x="174" y="175.368" width="6" height="24.6319" stroke="black" stroke-width="1" fill="blue" tooltip="enable"><title>(1.10015,92)</title></rect><rect x="180" y="186.345" width="6" height="13.6546" stroke="black" stroke-width="1" fill="blue" tooltip="enable"><title>(1.13808,51)</title></rect><rect x="186" y="175.1" width="6" height="24.8996" stroke="black" stroke-width="1" fill="blue" tooltip="enable"><title>(1.17602,93)</title></rect><rect x="192" y="179.116" width="6" height="20.8835" stroke="black" stroke-width="1" fill="blue" tooltip="enable"><title>(1.21396,78)</title></rect><rect x="198" y="184.471" width="6" height="15.5288" stroke="black" stroke-width="1" fill="blue" tooltip="enable"><title>(1.25189,58)</title></rect><rect x="204" y="186.345" width="6" height="13.6546" stroke="black" stroke-width="1" fill="blue" tooltip="enable"><title>(1.28983,51)</title></rect><rect x="210" y="184.739" width="6" height="15.261" stroke="black" stroke-width="1" fill="blue" tooltip="enable"><title>(1.32776,57)</title></rect><rect x="216" y="186.078" width="6" height="13.9224" stroke="black" stroke-width="1" fill="blue" tooltip="enable"><title>(1.3657,52)</title></rect><rect x="222" y="187.149" width="6" height="12.8514" stroke="black" stroke-width="1" fill="blue" tooltip="enable"><title>(1.40364,48)</title></rect><rect x="228" y="189.826" width="6" height="10.174" stroke="black" stroke-width="1" fill="blue" tooltip="enable"><title>(1.44157,38)</title></rect><rect x="234" y="191.165" width="6" height="8.83534" stroke="black" stroke-width="1" fill="blue" tooltip="enable"><title>(1.47951,33)</title></rect><rect x="240" y="187.952" width="6" height="12.0482" stroke="black" stroke-width="1" fill="blue" tooltip="enable"><title>(1.51744,45)</title></rect><rect x="246" y="187.952" width="6" height="12.0482" stroke="black" stroke-width="1" fill="blue" tooltip="enable"><title>(1.55538,45)</title></rect><rect x="252" y="188.755" width="6" height="11.245" stroke="black" stroke-width="1" fill="blue" tooltip="enable"><title>(1.59332,42)</title></rect><rect x="258" y="189.558" width="6" height="10.4418" stroke="black" stroke-width="1" fill="blue" tooltip="enable"><title>(1.63125,39)</title></rect><rect x="264" y="190.361" width="6" height="9.63855" stroke="black" stroke-width="1" fill="blue" tooltip="enable"><title>(1.66919,36)</title></rect><rect x="270" y="193.307" width="6" height="6.69344" stroke="black" stroke-width="1" fill="blue" tooltip="enable"><title>(1.70713,25)</title></rect><rect x="276" y="190.897" width="6" height="9.10308" stroke="black" stroke-width="1" fill="blue" tooltip="enable"><title>(1.74506,34)</title></rect><rect x="282" y="191.7" width="6" height="8.29987" stroke="black" stroke-width="1" fill="blue" tooltip="enable"><title>(1.783,31)</title></rect><rect x="288" y="193.307" width="6" height="6.69344" stroke="black" stroke-width="1" fill="blue" tooltip="enable"><title>(1.82093,25)</title></rect><rect x="294" y="190.629" width="6" height="9.37082" stroke="black" stroke-width="1" fill="blue" tooltip="enable"><title>(1.85887,35)</title></rect><rect x="300" y="191.7" width="6" height="8.29987" stroke="black" stroke-width="1" fill="blue" tooltip="enable"><title>(1.89681,31)</title></rect><rect x="306" y="192.771" width="6" height="7.22892" stroke="black" stroke-width="1" fill="blue" tooltip="enable"><title>(1.93474,27)</title></rect><rect x="312" y="195.448" width="6" height="4.55154" stroke="black" stroke-width="1" fill="blue" tooltip="enable"><title>(1.97268,17)</title></rect><rect x="318" y="196.787" width="6" height="3.21285" stroke="black" stroke-width="1" fill="blue" tooltip="enable"><title>(2.01061,12)</title></rect><rect x="324" y="196.787" width="6" height="3.21285" stroke="black" stroke-width="1" fill="blue" tooltip="enable"><title>(2.04855,12)</title></rect><rect x="330" y="197.59" width="6" height="2.40964" stroke="black" stroke-width="1" fill="blue" tooltip="enable"><title>(2.08649,9)</title></rect><rect x="336" y="195.984" width="6" height="4.01606" stroke="black" stroke-width="1" fill="blue" tooltip="enable"><title>(2.12442,15)</title></rect><rect x="342" y="198.661" width="6" height="1.33869" stroke="black" stroke-width="1" fill="blue" tooltip="enable"><title>(2.16236,5)</title></rect><rect x="348" y="195.984" width="6" height="4.01606" stroke="black" stroke-width="1" fill="blue" tooltip="enable"><title>(2.20029,15)</title></rect><rect x="354" y="195.984" width="6" height="4.01606" stroke="black" stroke-width="1" fill="blue" tooltip="enable"><title>(2.23823,15)</title></rect><rect x="360" y="196.519" width="6" height="3.48059" stroke="black" stroke-width="1" fill="blue" tooltip="enable"><title>(2.27617,13)</title></rect><rect x="366" y="197.323" width="6" height="2.67738" stroke="black" stroke-width="1" fill="blue" tooltip="enable"><title>(2.3141,10)</title></rect><rect x="372" y="198.126" width="6" height="1.87416" stroke="black" stroke-width="1" fill="blue" tooltip="enable"><title>(2.35204,7)</title></rect><rect x="378" y="197.858" width="6" height="2.1419" stroke="black" stroke-width="1" fill="blue" tooltip="enable"><title>(2.38998,8)</title></rect><rect x="384" y="197.323" width="6" height="2.67738" stroke="black" stroke-width="1" fill="blue" tooltip="enable"><title>(2.42791,10)</title></rect><rect x="390" y="196.252" width="6" height="3.74833" stroke="black" stroke-width="1" fill="blue" tooltip="enable"><title>(2.46585,14)</title></rect><rect x="396" y="197.323" width="6" height="2.67738" stroke="black" stroke-width="1" fill="blue" tooltip="enable"><title>(2.50378,10)</title></rect><rect x="402" y="198.394" width="6" height="1.60643" stroke="black" stroke-width="1" fill="blue" tooltip="enable"><title>(2.54172,6)</title></rect><rect x="408" y="199.197" width="6" height="0.803213" stroke="black" stroke-width="1" fill="blue" tooltip="enable"><title>(2.57966,3)</title></rect><rect x="414" y="197.59" width="6" height="2.40964" stroke="black" stroke-width="1" fill="blue" tooltip="enable"><title>(2.61759,9)</title></rect><rect x="420" y="198.126" width="6" height="1.87416" stroke="black" stroke-width="1" fill="blue" tooltip="enable"><title>(2.65553,7)</title></rect><rect x="426" y="198.661" width="6" height="1.33869" stroke="black" stroke-width="1" fill="blue" tooltip="enable"><title>(2.69346,5)</title></rect><rect x="432" y="199.732" width="6" height="0.267738" stroke="black" stroke-width="1" fill="blue" tooltip="enable"><title>(2.7314,1)</title></rect><rect x="438" y="198.394" width="6" height="1.60643" stroke="black" stroke-width="1" fill="blue" tooltip="enable"><title>(2.76934,6)</title></rect><rect x="444" y="198.394" width="6" height="1.60643" stroke="black" stroke-width="1" fill="blue" tooltip="enable"><title>(2.80727,6)</title></rect><rect x="450" y="199.465" width="6" height="0.535475" stroke="black" stroke-width="1" fill="blue" tooltip="enable"><title>(2.84521,2)</title></rect><rect x="456" y="199.732" width="6" height="0.267738" stroke="black" stroke-width="1" fill="blue" tooltip="enable"><title>(2.88314,1)</title></rect><rect x="462" y="200" width="6" height="0" stroke="black" stroke-width="1" fill="blue" tooltip="enable"><title>(2.92108,0)</title></rect><rect x="468" y="198.394" width="6" height="1.60643" stroke="black" stroke-width="1" fill="blue" tooltip="enable"><title>(2.95902,6)</title></rect><rect x="474" y="198.661" width="6" height="1.33869" stroke="black" stroke-width="1" fill="blue" tooltip="enable"><title>(2.99695,5)</title></rect><rect x="480" y="198.126" width="6" height="1.87416" stroke="black" stroke-width="1" fill="blue" tooltip="enable"><title>(3.03489,7)</title></rect><rect x="486" y="199.197" width="6" height="0.803213" stroke="black" stroke-width="1" fill="blue" tooltip="enable"><title>(3.07283,3)</title></rect><rect x="492" y="199.197" width="6" height="0.803213" stroke="black" stroke-width="1" fill="blue" tooltip="enable"><title>(3.11076,3)</title></rect><rect x="498" y="199.197" width="6" height="0.803213" stroke="black" stroke-width="1" fill="blue" tooltip="enable"><title>(3.1487,3)</title></rect><rect x="504" y="199.732" width="6" height="0.267738" stroke="black" stroke-width="1" fill="blue" tooltip="enable"><title>(3.18663,1)</title></rect><rect x="510" y="199.465" width="6" height="0.535475" stroke="black" stroke-width="1" fill="blue" tooltip="enable"><title>(3.22457,2)</title></rect><rect x="516" y="200" width="6" height="0" stroke="black" stroke-width="1" fill="blue" tooltip="enable"><title>(3.26251,0)</title></rect><rect x="522" y="199.465" width="6" height="0.535475" stroke="black" stroke-width="1" fill="blue" tooltip="enable"><title>(3.30044,2)</title></rect><rect x="528" y="199.732" width="6" height="0.267738" stroke="black" stroke-width="1" fill="blue" tooltip="enable"><title>(3.33838,1)</title></rect><rect x="534" y="199.732" width="6" height="0.267738" stroke="black" stroke-width="1" fill="blue" tooltip="enable"><title>(3.37631,1)</title></rect><rect x="540" y="199.732" width="6" height="0.267738" stroke="black" stroke-width="1" fill="blue" tooltip="enable"><title>(3.41425,1)</title></rect><rect x="546" y="199.732" width="6" height="0.267738" stroke="black" stroke-width="1" fill="blue" tooltip="enable"><title>(3.45219,1)</title></rect><rect x="552" y="200" width="6" height="0" stroke="black" stroke-width="1" fill="blue" tooltip="enable"><title>(3.49012,0)</title></rect><rect x="558" y="199.465" width="6" height="0.535475" stroke="black" stroke-width="1" fill="blue" tooltip="enable"><title>(3.52806,2)</title></rect><rect x="564" y="199.465" width="6" height="0.535475" stroke="black" stroke-width="1" fill="blue" tooltip="enable"><title>(3.56599,2)</title></rect><rect x="570" y="200" width="6" height="0" stroke="black" stroke-width="1" fill="blue" tooltip="enable"><title>(3.60393,0)</title></rect><rect x="576" y="199.732" width="6" height="0.267738" stroke="black" stroke-width="1" fill="blue" tooltip="enable"><title>(3.64187,1)</title></rect><rect x="582" y="200" width="6" height="0" stroke="black" stroke-width="1" fill="blue" tooltip="enable"><title>(3.6798,0)</title></rect><rect x="588" y="200" width="6" height="0" stroke="black" stroke-width="1" fill="blue" tooltip="enable"><title>(3.71774,0)</title></rect><rect x="594" y="199.465" width="6" height="0.535475" stroke="black" stroke-width="1" fill="blue" tooltip="enable"><title>(3.75568,2)</title></rect><text x="30" y="240" font-size="20" fill="black">0</text>
<text x="600" y="240" font-size="20" fill="black">3.79361</text>
<polyline points="0,220,600,220" stroke="black" stroke-width="1" fill="none"/>
<text x="720" y="20" font-size="20" fill="black">747</text>
<text x="720" y="200" font-size="20" fill="black">0</text>
<polyline points="660,0,660,200" stroke="black" stroke-width="1" fill="none"/>
</svg>