ply
format ascii 1.0
element vertex 18
property float x
property float y
property float z
property uchar diffuse_red
property uchar diffuse_green
property uchar diffuse_blue
end_header
1.22317 -3.35333e-008 0.547561 0 255 0
0.952961 0.105501 -0.234701 0 255 0
1.25741 -0.000633834 0.317826 0 255 0
1.1286 0.0119779 0.137255 0 255 0
0.964695 0.0570709 -0.0574277 0 255 0
0.874345 0.107428 -0.341939 255 0 255
0.629341 0.137077 -0.555806 0 255 0
1.19088 0.0172543 0.774375 255 0 255
1.17482 0.00141778 1.00019 255 0 255
1.25472 -7.22345e-009 1.17878 0 255 0
1.32497 0.00169726 1.36291 255 0 255
1.30647 0.00711626 1.57365 255 0 255
1.29513 0.00755857 1.8618 255 0 255
1.31025 0.030222 2.1948 255 0 255
1.30119 -0.00501688 2.61282 0 255 0
1.44874 -0.030404 3.00821 255 0 255
1.5714 -0.0359373 3.3649 255 0 255
1.68713 -4.98963e-008 3.59515 255 0 255
